<svg width="17" height="16" viewBox="0 0 17 16" fill="none" xmlns="http://www.w3.org/2000/svg">
<path d="M7.57764 1.2022C7.92034 0.383963 9.07966 0.383961 9.42236 1.2022L10.9221 4.783C11.0663 5.12724 11.3902 5.36254 11.7621 5.39328L15.6311 5.71313C16.5152 5.78621 16.8735 6.88878 16.2012 7.46757L13.2591 10.0005C12.9763 10.244 12.8525 10.6247 12.9382 10.9879L13.8296 14.7664C14.0333 15.6298 13.0954 16.3112 12.3372 15.8507L9.01913 13.8353C8.70016 13.6416 8.29984 13.6416 7.98087 13.8353L4.66278 15.8507C3.90457 16.3112 2.96667 15.6298 3.17036 14.7664L4.06176 10.9879C4.14745 10.6247 4.02375 10.244 3.74092 10.0005L0.798826 7.46757C0.126538 6.88878 0.484784 5.78621 1.36888 5.71313L5.23788 5.39328C5.60982 5.36254 5.93368 5.12724 6.07786 4.78301L7.57764 1.2022Z" fill="#BEB2A2"/>
</svg>
