<?xml version="1.0" standalone="no"?>
<!DOCTYPE svg PUBLIC "-//W3C//DTD SVG 20010904//EN"
 "http://www.w3.org/TR/2001/REC-SVG-20010904/DTD/svg10.dtd">
<svg version="1.0" xmlns="http://www.w3.org/2000/svg"
 width="173.000000pt" height="104.000000pt" viewBox="0 0 173.000000 104.000000"
 preserveAspectRatio="xMidYMid meet">

<g transform="translate(0.000000,104.000000) scale(0.100000,-0.100000)"
fill="#000000" stroke="none">
<path d="M590 499 c-34 -18 -94 -61 -131 -97 -68 -63 -70 -65 -113 -59 -70 10
-183 55 -338 135 -5 2 -8 0 -8 -5 0 -25 219 -128 315 -147 l60 -13 -3 -65 c-3
-62 -2 -67 29 -102 37 -43 246 -149 282 -144 15 2 -10 16 -73 42 -196 80 -261
150 -217 235 10 20 25 27 78 37 37 7 84 21 105 32 75 38 164 131 164 172 0 22
-87 10 -150 -21z m111 -7 c-11 -21 -117 -114 -148 -131 -37 -19 -113 -30 -113
-17 0 31 125 124 210 157 50 19 65 16 51 -9z"/>
</g>
</svg>
