<svg width="1528" height="670" viewBox="0 0 1528 670" fill="none" xmlns="http://www.w3.org/2000/svg">
<path d="M344.872 515.001C296.815 511.441 196.111 508.82 141.964 568.397C108.505 605.212 86.3744 633.427 78.6024 611.776C70.8304 590.125 152.99 622.715 197.477 560.725M344.872 515.001C329.414 507.199 321.46 491.4 319.415 484.476M344.872 515.001C355.848 515.814 364.988 516.583 372.743 516.945M421.281 492.626C448.091 493.782 502.451 495.4 505.41 492.626M421.281 492.626C401.974 491.069 366.91 488.196 341.312 486.155M421.281 492.626C409.332 514.74 398.943 518.168 372.743 516.945M505.41 492.626C509.108 489.159 529.216 438.081 526.211 429.529C523.206 420.978 441.851 428.143 436.304 427.681C434.84 429.144 430.849 432.257 426.597 432.996C421.281 433.921 297.168 430.223 294.163 425.6C292.006 425.677 287.877 428.79 288.616 440.623C289.541 455.415 289.541 482.226 305.257 483.381C307.834 483.571 312.823 483.958 319.415 484.476M505.41 492.626C507.859 502.98 517.941 525.158 538.668 531.038M319.415 484.476C326.416 485.027 331.665 485.386 341.312 486.155M341.312 486.155C342.744 495.397 353.881 514.767 372.743 516.945M372.743 516.945L538.668 531.038M560.821 532.973C559.495 532.879 558.273 532.754 557.181 532.61L538.668 531.038M560.821 532.973C572.978 533.839 593.877 532.171 602.713 519.667C608.81 511.039 618.071 489.528 618.932 466.361C619.8 442.986 610.733 408.472 583.992 402.719C571.726 400.081 550.5 401.696 534.994 436.232C514.655 481.532 537.65 526.403 560.821 532.973ZM596.154 525.92C604.713 521.656 609.97 518.501 662.111 516.945C727.288 515.001 875.207 501.871 898.088 503.258M898.088 503.258C920.969 504.644 949.629 507.88 951.246 507.187M898.088 503.258C875.161 488.651 875.284 447.711 878.211 429.067M951.246 507.187C952.864 506.494 976.901 505.107 980.599 456.571C980.599 440.294 971.697 412.513 951.246 412.513C943.422 412.513 922.217 427.311 924.436 462.811C926.655 498.312 943.234 507.187 951.246 507.187ZM878.211 429.067C875.669 429.067 870.353 427.865 869.429 423.058C868.504 418.251 873.358 416.433 875.9 416.124C888.15 415.277 913.851 414.09 918.658 416.124C923.465 418.158 918.042 425.6 914.729 429.067H878.211ZM939.116 443.822C942.737 444.67 951.246 449.857 951.246 459.113C951.246 470.392 943.634 474.186 939.704 474.186M939.704 474.186C936.847 460.962 935.798 432.737 948.935 432.737C955.769 432.737 963.184 443.822 963.184 454.723C963.184 469.784 960.242 485.98 948.935 485.694C945.497 485.043 942.293 481.767 939.704 474.186ZM639.984 489.615C642.495 490.39 650.783 491.707 663.843 490.777C680.168 489.615 742.956 489.927 750.804 483.381M639.984 489.615C643.254 469.002 643.371 430.549 626.585 404.768M639.984 489.615C636.973 491.795 631.361 492.646 633.003 478.61C635.054 461.065 638.918 404.421 597.053 381.671M750.804 483.381C752.06 487.467 763.236 495.035 797.895 492.626C806.894 492.47 828.492 489.904 834.268 481.738M750.804 483.381L805.165 478.61C818.97 477.35 816.749 465.401 816.749 449.215C816.749 423.058 797.581 416.199 790.046 414.047H828.895M750.804 483.381C753.444 478.394 745.625 476.521 741.386 476.207C721.545 476.207 677.319 480.492 660.14 480.492V476.207L739.816 471.743L737.305 432.072M834.268 481.738C843.058 481.312 859.364 479.779 862.88 476.207C867.275 471.743 882.344 430.058 848.125 414.047H828.895M834.268 481.738C839.929 473.736 843.482 466.575 845.197 450.829C847.139 432.996 836.622 420.171 828.895 414.047M737.305 432.072L655.053 432.996C649.506 431.995 639.858 428.605 645.635 423.058C651.411 417.511 701.62 420.747 726.003 423.058C718.259 422.357 702.332 418.066 700.574 406.513L626.585 404.768M737.305 432.072C747.665 430.161 768.052 423.892 769.392 404.178M626.585 404.768C621.996 397.72 616.143 391.619 608.747 387.089M750.804 404.768C737.809 404.085 711.817 403.129 711.817 404.768C711.817 405.179 711.817 401.367 711.817 394.836M316.768 399.634C314.639 400.166 312.245 423.058 316.768 423.058C321.291 423.058 420.844 429.761 423.72 427.681C426.022 426.016 426.597 418.399 426.597 414.799L319.415 412.67V404.768L426.597 406.513V399.634L319.415 398.304V391.249H426.597V383.909H319.415V375.689H428.509V367.974H319.415V359.46H428.509V349.35L319.415 353.341V345.625L430.638 341.901V333.919L319.415 340.571C318.799 337.999 319.003 332.589 324.749 331.525C331.933 330.195 431.889 320.883 434.096 326.204C436.304 331.525 430.774 419.711 432.5 420.918C434.226 422.125 527.907 417.815 527.907 417.815C535.638 399.874 559.887 368.945 597.053 381.671M311.297 421.026C305.592 420.851 294.148 420.083 294.009 418.406C293.972 417.968 293.997 416.659 294.153 414.799M326.314 321.839C309.899 327.078 316.535 355.192 316.535 365.495C316.535 375.798 315.662 380.338 305.359 387.323C303.287 388.728 301.583 390.74 300.183 393.076M326.314 321.839C339.446 317.648 408.271 303.446 441.042 296.868V261.245C441.042 254.609 445.233 250.418 449.249 251.117M326.314 321.839C361.709 319.244 433.728 314.897 438.639 318.278C443.55 321.659 440.685 373.924 438.639 399.634C447.751 382.855 480.43 350.107 538.252 353.341C572.832 355.275 590.994 360.845 600.277 367.2M449.249 251.117C453.266 251.815 458.503 249.828 457.215 206.688C456.185 172.176 456.786 153.659 457.215 130.801C457.753 102.147 466.68 109.285 464.107 121.703C460.463 139.29 450.517 159.325 443.712 152.023M449.249 251.117C451.498 251.612 455.513 260.318 453.584 291.181C461.153 273.432 476.089 237.049 475.285 233.513M475.285 233.513C474.281 229.092 468.052 230.7 470.262 225.073C472.472 219.447 471.468 210.807 503.416 204.377M475.285 233.513C515.875 229.164 600.545 220.526 614.51 220.771C631.967 221.078 626.585 225.073 618.617 258.747C612.243 285.686 603.734 293.452 600.277 293.967M503.416 204.377C513.195 191.718 538.098 164.592 559.478 157.358M503.416 204.377C542.898 199.123 627.74 190.942 651.261 200.252M559.478 157.358C549.796 164.369 533.471 178.618 545.626 179.521C560.821 180.65 607.143 175.004 623.563 163.712C639.984 152.419 685.37 129.825 720.679 130.43M559.478 157.358C583.22 149.325 623.615 134.948 720.679 130.43M760.012 129.227C760.346 128.222 761.659 123.641 764.231 113.353C766.803 103.065 778.565 95.001 784.124 92.2549C786.736 94.7331 790.393 101.418 784.124 108.33C776.287 116.97 774.68 128.423 777.091 131.035M760.012 129.227V218.627C761.635 222.405 766.597 228.428 773.458 222.303L777.091 131.035M760.012 129.227C745.954 129.451 732.87 129.863 720.679 130.43M777.091 131.035C779.02 133.125 796.783 136.059 805.423 137.264M805.423 137.264C839.314 131.102 909.588 119.1 919.555 120.386M805.423 137.264C812.495 155.781 827.187 202.317 829.377 240.328M805.423 137.264C817.329 138.456 841.998 141.757 845.428 145.432M919.555 120.386C929.521 121.672 1234.22 193.205 1385.33 228.81C1386.67 231.352 1388.54 237.4 1385.33 241.253C1382.12 245.106 1383.99 353.104 1385.33 406.622C1383.46 406.354 1378.67 405.498 1374.49 404.213C1370.32 402.929 1360.98 405.284 1356.83 406.622H1072.82C1068.88 403.809 1062.65 398.008 1069.28 397.298C1075.9 396.589 1278.17 398.973 1378.49 400.254V394.638L928.86 384.883M919.555 120.386C919.959 122.916 925.79 129.2 945.88 134.1C965.971 139.001 1242.65 203.927 1378.49 235.778M1582.42 479.263C1573.91 457.937 1547.62 443.068 1508.99 449.029C1460.69 456.479 1439.62 464.7 1409.05 467.269C1384.6 469.324 1355.02 471.208 1343.28 471.893M1343.28 471.893C1346.28 468.725 1352.02 457.969 1350.99 440.294C1349.71 418.2 1343.28 412.805 1334.55 412.035M1343.28 471.893C1342.43 473.177 1339.48 475.695 1334.55 475.49M1334.55 412.035C1334.25 412.008 1333.96 412.009 1333.66 412.035M1334.55 412.035H1333.66M1333.66 412.035C1325.45 412.768 1320.48 433.894 1322.22 449.029C1323.36 458.956 1328.38 475.233 1334.55 475.49M1333.66 412.035H1303.62M1334.55 475.49C1328.83 477.463 1316.19 478.582 1312.59 467.269M1312.59 467.269C1313.88 464.96 1315.8 453.309 1315.8 444.308C1315.8 430.358 1310.19 412.035 1303.62 412.035M1312.59 467.269C1311.55 469.847 1306.66 479.744 1300.09 479.263M1303.62 412.035C1297.04 412.035 1286.62 427.792 1286.94 445.59C1287.26 463.389 1293.51 478.782 1300.09 479.263M1303.62 412.035H1283.59M1300.09 479.263H1288.36M1283.59 412.035C1274.27 421.356 1273.21 437.227 1274.99 451.438M1283.59 412.035H1093M1274.99 451.438C1276.77 465.649 1280.79 475.469 1288.36 479.263M1274.99 451.438C1271.19 452.302 1265.55 452.282 1261.12 452.539M1288.36 479.263L1272.55 480.284M1027.66 496.108C1031.61 492.626 1041.36 479.842 1041.36 456.327C1041.36 432.072 1030.92 412.035 1017.39 412.035C1003.85 412.035 989.157 432.072 989.157 460.962C989.157 486.887 1002.9 500.323 1011.06 500.85M1027.66 496.108C1024.85 497.864 1017.6 501.271 1011.06 500.85M1027.66 496.108L1272.55 480.284M1011.06 500.85C1002.02 501.193 981.925 498.882 973.917 486.887M1001.77 440.294C1005.56 431.772 1012.35 426.99 1017.39 426.99C1019.76 426.99 1032.67 429.455 1032.67 456.327C1032.67 477.824 1020.9 484.428 1015.01 485.043C1009.88 485.043 1005.18 480.941 1002.19 473.331M1001.77 440.294C999.817 444.69 998.657 450.082 998.944 456.327C999.257 463.134 1000.43 468.843 1002.19 473.331M1001.77 440.294C1007.94 438.794 1015.01 447.791 1015.01 456.327C1015.01 463.263 1011.06 473.331 1002.19 473.331M922.036 393.184C965.487 391.797 1053.24 390.145 1056.65 394.638C1060.91 400.254 1070.85 442.152 1079.65 445.59C1086.7 448.341 1085.62 424.366 1084.2 412.035H1093M922.036 393.184L857.066 391.249M922.036 393.184L921.949 383.909M1093 412.035C1093 426.199 1093.62 455.208 1096.12 457.934C1098.45 460.477 1199.66 456.093 1261.12 452.539M1261.12 452.539C1261.56 461.118 1265.79 477.944 1272.55 480.284M910.23 458.995C910.236 458.918 910.242 458.841 910.247 458.764M910.247 458.764C910.23 444.321 918.658 407.713 943.062 401.696M910.247 458.764L916.4 458.995C918.658 436.494 930.314 413.322 940.384 408.386C950.453 403.45 1036.73 408.386 1053.89 408.386V402.807L985.66 401.696H943.062M910.247 458.764L876.912 457.514M943.062 401.696C932.523 400.93 908.928 399.398 898.859 399.398C888.79 399.398 884.124 405.39 883.049 408.386M769.392 404.178C783.113 407.298 816.665 407.199 825.021 401.696C826.502 400.721 827.792 396.98 828.895 391.249M769.392 404.178C772.269 405.351 777.503 403.78 779.578 391.249M829.377 240.328C825.441 234.705 795.733 230.249 780.451 228.599C770.884 230.058 759.629 228.599 752.725 225.073C745.82 221.548 723.67 225.073 716.789 225.073C709.907 225.073 711.817 218.627 710.098 212.472C708.379 206.317 695.953 209.414 674.927 208.076C658.106 207.005 652.141 202.414 651.261 200.252M829.377 240.328C835.417 248.956 835.574 356.56 828.895 391.249M780.467 244.13C778.662 236.611 764.357 229.001 758.334 238.652C750.804 250.716 753.642 391.731 755.988 393.184C758.334 394.638 778.878 397.615 779.578 391.249M780.467 244.13C780.576 283.645 780.707 358.332 780.451 380.069C780.399 384.519 780.081 388.207 779.578 391.249M780.467 244.13C780.461 242.218 780.472 245.866 780.467 244.13ZM780.467 244.13C780.445 236.716 782.773 238.823 800.571 240.328C822.817 242.209 824.597 245.019 823.485 254.14C822.372 263.261 828.156 342.237 818.813 344.462M639.984 301.653C631.507 302.323 634.678 308.02 633.003 314.052C631.662 318.878 622.854 318.88 618.617 318.278C616.642 341.638 617.634 388.937 637.402 391.249C662.111 394.139 702.786 396.668 706.399 385.83C709.289 377.16 707.603 304.189 706.399 268.788C706.399 259.716 711.817 265.464 711.817 282.515C711.817 299.554 711.817 368.799 711.817 394.836M639.984 301.653C648.46 300.983 688.631 309.509 693.658 296.868C698.684 284.227 700.36 236.416 697.009 233.513C693.658 230.61 647.878 226.253 645.635 228.599C643.391 230.945 626.585 285.495 626.585 291.181C626.585 296.868 634.333 301.443 639.984 301.653ZM300.183 393.076C304.717 393.389 311.297 393.076 311.297 398.304C311.297 402.769 312.858 410.542 309.109 412.67C306.109 414.373 297.888 414.799 294.153 414.799M300.183 393.076C296.077 399.924 294.593 409.553 294.153 414.799M337.045 456.154C337.944 450.977 337.709 440.623 329.578 440.623M329.578 440.623C319.415 440.623 320.035 451.164 322.411 456.154C324.225 459.962 323.324 461.868 329.578 462.531M329.578 440.623V462.531M410.512 464.516C414.915 463.55 423.72 459.728 423.72 452.166C423.72 444.605 414.915 443.511 410.512 443.909M410.512 464.516C408.45 464.456 406.14 464.39 403.643 464.32M410.512 464.516V443.909M410.512 443.909C408.322 444.96 403.882 448.462 403.643 454.063C403.404 459.664 403.544 463.235 403.643 464.32M403.643 464.32C382.328 463.722 347.406 462.811 337.045 462.811C333.797 462.811 331.388 462.723 329.578 462.531M485.575 329.493C463.28 332.124 462.401 349.183 464.748 357.383C465.667 356.635 468.056 354.779 470.262 353.341C473.019 351.543 472.713 345.625 478.225 345.625C483.738 345.625 489.863 347.222 489.863 340.571C489.863 335.249 487.005 330.968 485.575 329.493ZM485.575 329.493C507.871 326.862 569.184 319.821 597.053 316.63C600.595 312.893 604.085 303.128 589.703 293.967C584.278 290.511 568.525 291.024 548.771 293.569M446.681 314.052C472.639 307.505 516.158 297.769 548.771 293.569M489.863 387.089C482.482 387.194 473.572 388.058 464.748 389.642C447.768 392.692 441.055 407.684 439.821 414.799C439.343 416.927 453.584 417.815 480.297 414.799C507.009 411.783 507.198 396.306 507.445 391.249C507.589 388.294 500.236 386.942 489.863 387.089ZM489.863 387.089C483.333 393.072 471.276 406.839 475.285 414.047M608.747 387.089C606.839 385.921 604.83 384.858 602.713 383.909C600.794 383.05 598.908 382.306 597.053 381.671M608.747 387.089C609.964 381.989 610.396 374.128 600.277 367.2M600.277 319.692V367.2M458.931 296.868L548.771 293.569M651.261 200.252C651.968 205.561 648.121 214.156 637.402 214.646C624.003 215.259 590.315 212.853 478.225 226.59M618.617 287.842C633.003 245.272 632.579 216.484 651.261 218.627C666.206 220.343 694.247 223.639 706.399 225.073V246.803M845.428 145.432C849.716 150.026 857.678 211.89 857.066 242.209C856.453 272.529 859.822 387.86 857.066 391.249M845.428 145.432C848.125 145.432 892.511 136.225 895.299 141.902C898.088 147.579 903.715 338.11 898.088 340.571C893.586 342.539 873.485 342.761 863.998 342.626M857.066 391.249C854.309 394.638 832.769 397.615 828.895 391.249M919.555 131.035L921.949 383.909M862.88 204.377C862.453 237.554 863.925 306.241 863.998 342.626M921.949 383.909C903.604 383.909 868.593 387.089 864.887 380.069C864.289 378.936 864.04 363.853 863.998 342.626M754.127 176.999C730.04 174.505 676.954 174.427 643.746 181.209C612.493 187.591 636.05 193.292 651.261 194.071M818.813 344.462C809.469 346.686 792.89 342.626 788.071 345.05C784.137 347.029 782.333 380.777 788.644 383.909C793.793 386.465 820.572 388.563 821.462 381.196C822.432 373.166 825.264 344.462 818.813 344.462ZM750.804 394.836H711.817M948.935 425.459C942.326 425.459 931.139 437.11 932.063 460.962C932.988 484.814 945.237 490.777 951.246 490.777C957.855 490.777 969.836 479.921 969.043 456.571C968.204 431.862 954.917 425.802 948.935 425.459ZM353.944 471.743L384.811 473.93C386.836 474.635 388.894 476.351 388.7 480.492C388.505 484.633 382.867 483.381 372.743 483.381L351.513 481.951C346.166 481.951 343.249 471.743 353.944 471.743ZM578.611 427.681C567.616 426.393 545.626 433.403 545.626 471.743C545.76 483.557 551.696 507.187 574.37 507.187C597.044 507.187 606.413 490.777 606.413 462.811C606.413 446.724 595.755 429.458 578.611 427.681ZM578.611 436.232C567.572 437.052 552.883 446.148 553.923 471.743C554.963 497.337 571.54 500.992 579.699 499.62C587.569 498.393 600.277 489.007 600.277 461.065C599.193 451.751 591.777 435.254 578.611 436.232ZM567.4 452.166C561.902 458.792 554.421 477.217 571.726 489.615C579.699 492.626 591.599 488.554 591.599 466.361C591.599 446.894 575.376 443.919 567.4 452.166ZM1336.16 424.425C1331.68 424.425 1327.81 435.078 1329.59 450.882C1330.71 460.823 1333.6 465.633 1337.13 465.633C1340.65 465.633 1344.66 456.172 1344.66 445.59C1344.66 435.489 1341.78 425.387 1336.16 424.425ZM1302.17 465.633C1305.25 465.712 1308.91 454.089 1308.91 445.59C1308.91 440.294 1305.86 426.99 1302.17 426.99C1298.48 426.99 1295.63 436.197 1294.96 445.59C1294.3 454.717 1299.09 465.554 1302.17 465.633ZM432.5 471.743C433.533 467.243 438.764 457.826 451.427 456.154C464.09 454.481 463.074 462.262 460.984 466.361C459.824 470.593 452.505 477.593 432.5 471.743ZM311.297 464.516C305.942 466.407 296.428 467 296.428 454.063C296.428 443.909 314.347 456.154 311.297 464.516ZM688.844 355.6C688.256 361.94 687.736 372.432 688.844 374.024C691.402 377.702 700.123 377.179 700.574 371.205C701.286 361.778 701.968 352.331 698.403 350.109C694.838 347.886 688.844 348.736 688.844 355.6Z" stroke="#BEB2A2" stroke-width="2"/>
</svg>
